# xmcd
#
# Track frame offsets: 
#        150
#        19743
#        38272
#        60507
#        79315
#        98499
#        148408
#        163245
#
# Disc length: 2541 seconds
#
# Revision: 0
# Processed by: cddbd v1.5.2PL0 Copyright (c) Steve Scherf et al.
# Submitted via: ExactAudioCopy v1.0b4
#
DISCID=5f09eb08
DTITLE=Nighthawks, The - Live In Europe (LP)
DYEAR=1986
DGENRE=Blues
TTITLE0=If You Love Me (Say I)
TTITLE1=Back To The City
TTITLE2=Mighty Long Time
TTITLE3=Nothin' But You
TTITLE4=Save That Dress
TTITLE5=Black Night
TTITLE6=Hard Headed Woman
TTITLE7=I Can Tell
EXTD=
EXTT0=
EXTT1=
EXTT2=
EXTT3=
EXTT4=
EXTT5=
EXTT6=
EXTT7=
PLAYORDER=
